# xmcd
#
# Track frame offsets:
#	150
#	9610
#	18472
#	27807
#	39705
#	76042
#	100977
#	120137
#	138900
#	160910
#	178892
#	193252
#	215640
#	226720
#	250312
#
# Disc length: 3642 seconds
#
# Revision: 1
# Processed by: cddbd v1.5.2PL0 Copyright (c) Steve Scherf et al.
# Submitted via: audiograbber 1.83.01
#
DISCID=bd0e380f
DTITLE=Janis Joplin - The Essential Janis Joplin - CD 1
DYEAR=2003
DGENRE=Rock
TTITLE0=Down On Me
TTITLE1=Coo Coo
TTITLE2=Women Is Losers
TTITLE3=Bye, Bye Baby
TTITLE4=Ball And Chain - live
TTITLE5=Roadblock
TTITLE6=Piece Of My Heart
TTITLE7=Misery'n
TTITLE8=I Need A Man t\\To Love
TTITLE9=Summertime
TTITLE10=Flower In The Sun - live
TTITLE11=Farewell Song - live
TTITLE12=Raise Your Hand - live
TTITLE13=To Love Somebody - live
TTITLE14=Kozmic Blues - live
EXTD=
EXTT0=
EXTT1=
EXTT2=
EXTT3=
EXTT4=
EXTT5=
EXTT6=
EXTT7=
EXTT8=
EXTT9=
EXTT10=
EXTT11=
EXTT12=
EXTT13=
EXTT14=
PLAYORDER=
